<svg xmlns="http://www.w3.org/2000/svg" xmlns:osb="http://www.openswatchbook.org/uri/2009/osb" xmlns:svg="http://www.w3.org/2000/svg" id="svg7539" width="50" height="20" version="1.1"><defs id="defs7541"><linearGradient id="selected_bg_color" osb:paint="solid"><stop id="stop4166" offset="0" style="stop-color:#5294e2;stop-opacity:1"/></linearGradient><linearGradient id="linearGradient4695-1-4-3-5-0-6"><stop style="stop-color:#000;stop-opacity:1" id="stop4697-9-9-7-0-1-5" offset="0"/><stop style="stop-color:#000;stop-opacity:0" id="stop4699-5-8-9-0-4-0" offset="1"/></linearGradient><linearGradient id="linearGradient3768-6"><stop id="stop3770-0" offset="0" style="stop-color:#0f0f0f;stop-opacity:1"/><stop style="stop-color:#171717;stop-opacity:1" id="stop3778-6" offset=".078"/><stop id="stop3774-2" offset=".974" style="stop-color:#171717;stop-opacity:1"/><stop id="stop3776-2" offset="1" style="stop-color:#1b1b1b;stop-opacity:1"/></linearGradient><linearGradient id="linearGradient3969-0-4"><stop id="stop3971-2-6" offset="0" style="stop-color:#353537;stop-opacity:1"/><stop id="stop3973-0-1" offset="1" style="stop-color:#4d4f52;stop-opacity:1"/></linearGradient><linearGradient id="linearGradient3938"><stop style="stop-color:#fff;stop-opacity:0" id="stop3940" offset="0"/><stop style="stop-color:#fff;stop-opacity:.54901963" id="stop3942" offset="1"/></linearGradient><linearGradient id="linearGradient6523"><stop style="stop-color:#1a1a1a;stop-opacity:1" id="stop6525" offset="0"/><stop style="stop-color:#1a1a1a;stop-opacity:0" id="stop6527" offset="1"/></linearGradient><linearGradient id="linearGradient3938-6"><stop style="stop-color:#bebebe;stop-opacity:1" id="stop3940-4" offset="0"/><stop style="stop-color:#fff;stop-opacity:1" id="stop3942-8" offset="1"/></linearGradient><filter style="color-interpolation-filters:sRGB" id="filter930" width="1.072" height="1.072" x="-.036" y="-.036"><feGaussianBlur id="feGaussianBlur932" stdDeviation=".225"/></filter></defs><metadata id="metadata7544"/><g id="layer1" transform="translate(-120,87.999997)"><path style="fill:none;fill-opacity:1" id="path900" d="m 127.35953,-77.145935 a 9.5,9.5 0 0 0 -0.0195,0.585938 9.5,9.5 0 0 0 9.5,9.5 h 7.5 2 7.5 a 9.5,9.5 0 0 0 9.5,-9.5 9.5,9.5 0 0 0 -0.0195,-0.414062 9.5,9.5 0 0 1 -9.48047,8.914062 h -7.5 -2 -7.5 a 9.5,9.5 0 0 1 -9.48047,-9.085938 z"/><path style="fill:#81a1c1;fill-opacity:1;stroke:#81a1c1;stroke-opacity:1" id="path872" d="m 137.34,-87.559997 a 9.5,9.5 0 0 0 -9.5,9.5 9.5,9.5 0 0 0 9.5,9.5 h 7.5 2 7.5 a 9.5,9.5 0 0 0 9.5,-9.5 9.5,9.5 0 0 0 -9.5,-9.5 h -7.5 -2 z"/><rect style="color:#000;display:inline;overflow:visible;visibility:visible;opacity:1;fill:#000;fill-opacity:.1;fill-rule:nonzero;stroke:none;stroke-width:1.76471;stroke-opacity:1;marker:none;filter:url(#filter930);enable-background:new" id="rect934" width="15" height="15" x="146.34" y="-83.56" ry="7.392"/><rect id="rect912" width="15" height="15" x="146.34" y="-84.56" ry="7.392" style="color:#000;display:inline;overflow:visible;visibility:visible;opacity:1;fill:#000;fill-opacity:.2;fill-rule:nonzero;stroke:none;stroke-width:1.76471;stroke-opacity:1;marker:none;filter:url(#filter930);enable-background:new"/><rect style="color:#000;display:inline;overflow:visible;visibility:visible;opacity:1;fill:#3b4252;fill-opacity:1;fill-rule:nonzero;stroke:none;stroke-width:1.76471;stroke-opacity:1;marker:none;enable-background:new" id="rect3872" width="15" height="15" x="146.34" y="-85.06" ry="7.392"/><path style="fill:none;fill-opacity:1" id="path902" d="m 136.84,-87.059997 a 9.5,9.5 0 0 0 -9.5,9.5 9.5,9.5 0 0 0 0.0195,0.414062 9.5,9.5 0 0 1 9.48047,-8.914062 h 7.5 2 7.5 a 9.5,9.5 0 0 1 9.48047,9.085938 9.5,9.5 0 0 0 0.0195,-0.585938 9.5,9.5 0 0 0 -9.5,-9.5 h -7.5 -2 z"/><path style="color:#000;display:inline;overflow:visible;visibility:visible;opacity:1;fill:none;fill-opacity:.2;fill-rule:nonzero;stroke:none;stroke-width:1.76471;stroke-opacity:1;marker:none;enable-background:new" id="rect936" d="m 153.73258,-85.059997 c -4.09536,0 -7.39258,3.29722 -7.39258,7.392578 v 0.214844 c 0,0.132603 0.0127,0.261734 0.0195,0.392578 0.20406,-3.910194 3.41029,-7 7.37305,-7 h 0.21484 c 3.96276,0 7.16899,3.089806 7.37305,7 0.007,-0.130844 0.0195,-0.259975 0.0195,-0.392578 v -0.214844 c 0,-4.095358 -3.29722,-7.392578 -7.39258,-7.392578 z"/></g></svg>